<?xml version="1.0" encoding="utf-8"?>
<!-- Generator: Adobe Illustrator 23.0.1, SVG Export Plug-In . SVG Version: 6.00 Build 0)  -->
<svg version="1.1" id="Calque_1" xmlns="http://www.w3.org/2000/svg" xmlns:xlink="http://www.w3.org/1999/xlink" x="0px" y="0px"
	 viewBox="0 0 211 41" style="enable-background:new 0 0 211 41;" xml:space="preserve">
<style type="text/css">
	.st0{fill:url(#SVGID_1_);}
	.st1{fill:#FFFFFF;}
</style>
<linearGradient id="SVGID_1_" gradientUnits="userSpaceOnUse" x1="0.2" y1="817.7897" x2="68.0936" y2="817.7897" gradientTransform="matrix(1 0 0 1 0 -799.8898)">
	<stop  offset="0" style="stop-color:#7D2C6C"/>
	<stop  offset="0.2472" style="stop-color:#AA267B"/>
	<stop  offset="0.8146" style="stop-color:#DF242F"/>
	<stop  offset="1" style="stop-color:#DF242F"/>
</linearGradient>
<path class="st0" d="M1.5,0.2c-0.8,0-1.3,0.4-1.3,1.1v33.3c0,0.6,0.4,1.1,1.1,1.1h59.4c0.5,0,0.9,0,1.2-0.8c0,0,6-18.9,6.1-19.2
	c0.2-0.7,0.1-1.1-0.5-1.5C48.2,1.9,19.2,0.1,6.1,0.1C4.2,0.1,2.7,0.2,1.5,0.2z"/>
<path class="st1" d="M13.8,21.5c-2.2-1-3.7-1.6-3.3-2.7c0.4-1.3,2.6-1.8,4.6-1.7c1,0,1.7,0.1,2.6,0.4l0.7-2.3c-1-0.2-1.8-0.3-3-0.3
	c-4-0.1-7.6,1-8.5,3.3c-1.1,2.7,2,4.3,4.7,5.6c2.2,1,3.8,2,3.2,3.2c-0.4,1-2,1.4-4.2,1.4c-1.9,0-4.3-0.6-6.2-1.5l-1.1,2.4
	c1.4,0.6,4.2,1.5,6.6,1.6c4.5,0.1,7.5-1,8.7-3.5C20,24.4,16.6,22.9,13.8,21.5z"/>
<path class="st1" d="M20,25.6c0,0,0,0.1,0.1,0.1c0,0,0.1,0,0.1-0.1s2.2-6.9,2.2-6.9c2.2,3.2,4.4,7.4,5.7,11.9h3.6l1.8-5.7
	c0,0,0-0.1,0.1-0.1c0,0,0.1,0,0.1,0.1c0.5,3.5,4.1,5.9,9.1,5.9c3.2,0,6.2-0.9,6.9-1.2l1.9-6h7.3l0.7-2.3h-7.3l1.3-3.9h8.7l0.8-2.4
	H50.8l-4.1,13c-0.9,0.2-2,0.3-3.1,0.3c-2.4,0-4.4-0.6-5.5-1.9c-0.8-1-1.2-2.2-0.9-3.6c0.5-3.3,3.7-5.4,8-5.4c0.9,0,1.8,0,2.7,0.2
	l0.9-2.5c-1-0.2-2.3-0.2-3.5-0.2c-3.8,0-7.2,1.3-9.3,3.6c0,0.1-0.1,0.1-0.2,0.1s-0.1,0-0.1-0.1l1.1-3.4h-3.2L30,26
	c-1.1-3.2-3.4-7.5-6.2-10.9h-3.4l-2.5,8C19.2,24,19.6,24.7,20,25.6z"/>
</svg>
